#!OML:ASF H:\ManfredObstacles\Project 1\Capture day 2\Session 1\male.ASF
:FULLY-SPECIFIED
:DEGREES
335
root 2.90806 15.3431 -5.80994 -154.546 -3.22301 179.326
lowerback 25.8072 4.26171 -1.07425
upperback 14.2193 1.81121 0.826587
thorax 1.39478 -0.522633 1.04194
lowerneck -29.8676 -1.68812 0.762453
upperneck 23.7831 -4.21443 4.1407
head 12.9974 -1.21324 0.665895
rclavicle -2.3059e-014 2.80286e-014
rhumerus -11.6069 14.4727 -94.8504
rradius 57.738
rwrist 38.0555
rhand -1.9179 -11.7898
rfingers 7.12502
rthumb 23.7521 -40.3418
lclavicle -2.3059e-014 2.80286e-014
lhumerus -15.0335 -34.7688 93.3494
lradius 69.6932
lwrist -27.9892
lhand -12.545 15.9139
lfingers 7.12502
lthumb 13.5317 45.4543
rfemur -37.113 7.48193 24.4427
rtibia 48.0712
rfoot -16.2275 -26.3243
rtoes -20.8836
lfemur -68.0915 -9.74891 -8.93715
ltibia 42.2465
lfoot 12.9806 12.3997
ltoes -9.69322
336
root 2.89454 15.3661 -5.98332 -154.679 -3.18273 179.339
lowerback 25.2428 4.19589 -1.24433
upperback 14.0718 1.79072 0.744039
thorax 1.48617 -0.507804 1.06108
lowerneck -29.9033 -1.62323 0.813364
upperneck 23.7933 -4.15449 4.15483
head 13.0067 -1.18054 0.674449
rclavicle -3.57812e-015 1.98785e-015
rhumerus -12.1102 14.8121 -94.9228
rradius 58.0755
rwrist 37.8571
rhand -2.17892 -11.6442
rfingers 7.12502
rthumb 23.5018 -40.2286
lclavicle -3.57812e-015 1.98785e-015
lhumerus -15.4917 -33.9604 93.503
lradius 69.2789
lwrist -27.9535
lhand -11.9404 15.9366
lfingers 7.12502
lthumb 14.1144 45.4373
rfemur -35.8326 7.45535 24.545
rtibia 47.2965
rfoot -16.0347 -26.3528
rtoes -20.9681
lfemur -67.3585 -9.83644 -8.83821
ltibia 41.0043
lfoot 13.4221 11.3587
ltoes -9.91285
337
root 2.87873 15.386 -6.15934 -154.812 -3.1173 179.366
lowerback 24.6572 4.12404 -1.41212
upperback 13.9274 1.76305 0.653204
thorax 1.5943 -0.496746 1.07191
lowerneck -30.0274 -1.55431 0.865261
upperneck 23.898 -4.10374 4.17928
head 13.0717 -1.1473 0.685149
rclavicle 0 -4.17448e-015
rhumerus -12.576 15.1789 -94.984
rradius 58.4222
rwrist 37.6197
rhand -2.40702 -11.4991
rfingers 7.12502
rthumb 23.283 -40.1113
lclavicle 0 -4.17448e-015
lhumerus -15.9976 -33.1754 93.6299
lradius 68.9917
lwrist -27.9382
lhand -11.3721 16.027
lfingers 7.12502
lthumb 14.662 45.4886
rfemur -34.5557 7.42989 24.6454
rtibia 46.5404
rfoot -15.8119 -26.3503
rtoes -21.0916
lfemur -66.6394 -9.87273 -8.84505
ltibia 40.1183
lfoot 13.7696 10.3836
ltoes -10.1222
338
root 2.86068 15.4025 -6.33823 -154.947 -3.03658 179.411
lowerback 24.045 4.04318 -1.56707
upperback 13.7893 1.7263 0.561088
thorax 1.72579 -0.49039 1.07637
lowerneck -30.2202 -1.48614 0.920542
upperneck 24.062 -4.06057 4.19753
head 13.1742 -1.11566 0.691589
rclavicle 2.78299e-015 -1.43125e-014
rhumerus -13.007 15.5633 -95.0292
rradius 58.7797
rwrist 37.3324
rhand -2.55883 -11.3558
rfingers 7.12502
rthumb 23.1373 -39.9864
lclavicle 2.78299e-015 -1.43125e-014
lhumerus -16.5393 -32.4236 93.7368
lradius 68.8256
lwrist -27.8888
lhand -10.8917 16.155
lfingers 7.12502
lthumb 15.1249 45.5824
rfemur -33.2826 7.41373 24.7484
rtibia 45.8118
rfoot -15.5132 -26.3509
rtoes -21.3174
lfemur -65.9195 -9.84978 -8.97205
ltibia 39.5963
lfoot 13.9988 9.50057
ltoes -10.0045
339
root 2.84048 15.4162 -6.51999 -155.083 -2.93565 179.467
lowerback 23.4089 3.95407 -1.71917
upperback 13.6449 1.68342 0.466986
thorax 1.86502 -0.48624 1.07866
lowerneck -30.3991 -1.43135 0.932243
upperneck 24.2358 -4.02916 4.25022
head 13.2808 -1.08859 0.716636
rclavicle -5.56597e-015 -2.98177e-015
rhumerus -13.4387 15.9683 -95.0544
rradius 59.1602
rwrist 36.9949
rhand -2.68405 -11.204
rfingers 7.12502
rthumb 23.0172 -39.8496
lclavicle -5.56597e-015 -2.98177e-015
lhumerus -17.1307 -31.7195 93.8356
lradius 68.763
lwrist -27.7795
lhand -10.5057 16.3089
lfingers 7.12502
lthumb 15.4967 45.7079
rfemur -32.0256 7.40995 24.843
rtibia 45.1271
rfoot -15.1294 -26.3379
rtoes -21.6399
lfemur -65.1881 -9.76631 -9.22615
ltibia 39.4251
lfoot 14.1064 8.83951
ltoes -9.585
340
root 2.81837 15.4268 -6.70457 -155.221 -2.82082 179.529
lowerback 22.7519 3.85763 -1.86876
upperback 13.492 1.63629 0.371591
thorax 2.00823 -0.483101 1.07921
lowerneck -30.549 -1.38663 0.933387
upperneck 24.3902 -4.00336 4.29825
head 13.3743 -1.06647 0.740688
rclavicle -6.55989e-015 9.54166e-015
rhumerus -13.8803 16.3738 -95.061
rradius 59.5623
rwrist 36.594
rhand -2.75437 -11.0504
rfingers 7.12502
rthumb 22.9497 -39.7044
lclavicle -6.55989e-015 9.54166e-015
lhumerus -17.7644 -31.0799 93.9312
lradius 68.7823
lwrist -27.5888
lhand -10.2403 16.4483
lfingers 7.12502
lthumb 15.7522 45.8273
rfemur -30.7889 7.40576 24.9256
rtibia 44.4939
rfoot -14.67 -26.2975
rtoes -22.0729
lfemur -64.4281 -9.62254 -9.60766
ltibia 39.5686
lfoot 14.0969 8.47432
ltoes -8.75089
341
root 2.79446 15.435 -6.892 -155.365 -2.68605 179.599
lowerback 22.0785 3.75895 -2.01116
upperback 13.3292 1.59225 0.27204
thorax 2.15192 -0.476807 1.07074
lowerneck -30.6373 -1.34814 0.942286
upperneck 24.5034 -3.98093 4.33299
head 13.4388 -1.04885 0.757566
rclavicle 3.77691e-015 3.47873e-015
rhumerus -14.3455 16.7713 -95.0503
rradius 59.9911
rwrist 36.1058
rhand -2.79631 -10.9054
rfingers 7.12502
rthumb 22.9094 -39.5644
lclavicle 3.77691e-015 3.47873e-015
lhumerus -18.4272 -30.519 94.013
lradius 68.8551
lwrist -27.3661
lhand -10.0612 16.5484
lfingers 7.12502
lthumb 15.9247 45.9137
rfemur -29.5766 7.41267 24.9973
rtibia 43.9191
rfoot -14.1484 -26.2294
rtoes -22.635
lfemur -63.6242 -9.43424 -10.0733
ltibia 39.9594
lfoot 13.9231 8.4699
ltoes -7.64533
342
root 2.76931 15.4424 -7.0823 -155.52 -2.53904 179.675
lowerback 21.3995 3.66011 -2.14947
upperback 13.1498 1.55465 0.173364
thorax 2.28308 -0.465352 1.0598
lowerneck -30.6349 -1.32705 0.924562
upperneck 24.5653 -3.96857 4.37961
head 13.466 -1.03912 0.781379
rclavicle -4.57205e-015 1.35174e-014
rhumerus -14.853 17.1434 -95.0232
rradius 60.4466
rwrist 35.5213
rhand -2.8296 -10.7658
rfingers 7.12502
rthumb 22.8775 -39.4288
lclavicle -4.57205e-015 1.35174e-014
lhumerus -19.1237 -30.0328 94.0979
lradius 68.9563
lwrist -27.1787
lhand -9.96513 16.5798
lfingers 7.12502
lthumb 16.0172 45.9377
rfemur -28.3823 7.42536 25.0562
rtibia 43.3988
rfoot -13.5924 -26.1062
rtoes -23.3043
lfemur -62.7748 -9.22586 -10.582
ltibia 40.5099
lfoot 13.5483 8.82951
ltoes -6.49064
343
root 2.74317 15.45 -7.27502 -155.67 -2.36646 179.753
lowerback 20.7025 3.57258 -2.29042
upperback 12.9622 1.53582 0.0753913
thorax 2.41672 -0.443759 1.0479
lowerneck -30.6137 -1.31543 0.910998
upperneck 24.6186 -3.96551 4.412
head 13.4855 -1.03553 0.796999
rclavicle 1.17283e-014 4.37326e-015
rhumerus -15.3787 17.4693 -94.9623
rradius 60.9217
rwrist 34.8601
rhand -2.85095 -10.6337
rfingers 7.12502
rthumb 22.857 -39.2992
lclavicle 1.17283e-014 4.37326e-015
lhumerus -19.8098 -29.636 94.1755
lradius 69.0662
lwrist -27.06
lhand -9.91372 16.537
lfingers 7.12502
lthumb 16.0667 45.8909
rfemur -27.2269 7.4607 25.0919
rtibia 42.9299
rfoot -13.0111 -25.9198
rtoes -24.0604
lfemur -61.9015 -9.00291 -11.1036
ltibia 41.1262
lfoot 13.0008 9.45469
ltoes -5.47252
344
root 2.71594 15.4596 -7.47072 -155.83 -2.2116 179.816
lowerback 20.0337 3.48122 -2.40881
upperback 12.7531 1.52016 -0.021464
thorax 2.51673 -0.417184 1.02414
lowerneck -30.6249 -1.32156 0.904914
upperneck 24.7049 -3.98831 4.42559
head 13.5249 -1.04388 0.798906
rclavicle 2.61402e-014 -2.07233e-014
rhumerus -15.964 17.7061 -94.8877
rradius 61.4235
rwrist 34.1577
rhand -2.86527 -10.5017
rfingers 7.12502
rthumb 22.8433 -39.1689
lclavicle 2.61402e-014 -2.07233e-014
lhumerus -20.5081 -29.3388 94.2679
lradius 69.1746
lwrist -27.0283
lhand -9.8944 16.4371
lfingers 7.12502
lthumb 16.0853 45.7895
rfemur -26.0878 7.47399 25.1088
rtibia 42.5065
rfoot -12.3995 -25.6695
rtoes -24.9184
lfemur -60.9996 -8.79911 -11.6391
ltibia 41.73
lfoot 12.2937 10.2426
ltoes -4.66513
345
root 2.68793 15.4713 -7.66861 -155.985 -2.0761 179.855
lowerback 19.3833 3.38281 -2.52221
upperback 12.5191 1.50164 -0.119765
thorax 2.58362 -0.388991 0.996867
lowerneck -30.6359 -1.33632 0.887426
upperneck 24.8283 -4.02792 4.45376
head 13.581 -1.05827 0.805211
rclavicle -1.02871e-014 7.20594e-015
rhumerus -16.6124 17.8761 -94.8015
rradius 61.9472
rwrist 33.4176
rhand -2.88753 -10.388
rfingers 7.12502
rthumb 22.8219 -39.0578
lclavicle -1.02871e-014 7.20594e-015
lhumerus -21.2095 -29.1386 94.3664
lradius 69.2706
lwrist -27.0662
lhand -9.90893 16.2745
lfingers 7.12502
lthumb 16.0713 45.6281
rfemur -24.9833 7.4546 25.1016
rtibia 42.1334
rfoot -11.7009 -25.369
rtoes -25.8313
lfemur -60.1001 -8.59911 -12.2039
ltibia 42.2729
lfoot 11.5199 11.0414
ltoes -4.14079
346
root 2.66033 15.4846 -7.86943 -156.145 -1.95958 179.87
lowerback 18.7587 3.28634 -2.64653
upperback 12.2664 1.48646 -0.210929
thorax 2.61956 -0.35842 0.982854
lowerneck -30.6638 -1.36602 0.846588
upperneck 24.9878 -4.08825 4.49902
head 13.6573 -1.08072 0.818123
rclavicle -1.00635e-014 1.63003e-014
rhumerus -17.3283 17.9636 -94.7093
rradius 62.4912
rwrist 32.6427
rhand -2.94048 -10.2965
rfingers 7.12502
rthumb 22.7711 -38.9726
lclavicle -1.00635e-014 1.63003e-014
lhumerus -21.906 -29.0267 94.4805
lradius 69.3672
lwrist -27.1735
lhand -9.90955 16.0586
lfingers 7.12502
lthumb 16.0707 45.4121
rfemur -23.9156 7.41071 25.0787
rtibia 41.8208
rfoot -10.9467 -25.022
rtoes -26.7746
lfemur -59.188 -8.37181 -12.8097
ltibia 42.7413
lfoot 10.7164 11.7467
ltoes -3.70217
347
root 2.63345 15.4989 -8.07301 -156.304 -1.86915 179.863
lowerback 18.154 3.18118 -2.78722
upperback 11.9904 1.46114 -0.294511
thorax 2.62274 -0.331938 0.987803
lowerneck -30.6642 -1.40105 0.778441
upperneck 25.1597 -4.15253 4.56446
head 13.7352 -1.10538 0.842817
rclavicle 2.82647e-015 2.045e-014
rhumerus -18.1227 18.0014 -94.6168
rradius 63.0528
rwrist 31.8773
rhand -3.02286 -10.2393
rfingers 7.12502
rthumb 22.692 -38.9251
lclavicle 2.82647e-015 2.045e-014
lhumerus -22.5993 -28.9781 94.6042
lradius 69.4654
lwrist -27.2989
lhand -9.89703 15.7894
lfingers 7.12502
lthumb 16.0828 45.142
rfemur -22.8959 7.33456 25.0464
rtibia 41.5871
rfoot -10.1427 -24.6488
rtoes -27.7839
lfemur -58.2692 -8.10461 -13.4526
ltibia 43.148
lfoot 9.88995 12.3633
ltoes -3.549
348
root 2.60763 15.5135 -8.27878 -156.46 -1.80017 179.826
lowerback 17.5551 3.0732 -2.95542
upperback 11.7007 1.43027 -0.372223
thorax 2.61053 -0.308829 1.01526
lowerneck -30.6354 -1.44096 0.686153
upperneck 25.3221 -4.21876 4.64941
head 13.805 -1.13147 0.878891
rclavicle -5.46658e-015 -2.77802e-014
rhumerus -18.9714 17.9973 -94.5162
rradius 63.6296
rwrist 31.0891
rhand -3.13302 -10.2405
rfingers 7.12502
rthumb 22.5863 -38.9392
lclavicle -5.46658e-015 -2.77802e-014
lhumerus -23.2616 -29.0003 94.7262
lradius 69.5624
lwrist -27.413
lhand -9.84834 15.4772
lfingers 7.12502
lthumb 16.1297 44.8261
rfemur -21.9401 7.20938 25.0017
rtibia 41.4485
rfoot -9.19824 -24.2426
rtoes -28.4795
lfemur -57.3466 -7.80401 -14.1138
ltibia 43.5142
lfoot 9.06525 12.9169
ltoes -3.63982
